<?xml version="1.0" encoding="utf-8"?>
<!-- Generator: Adobe Illustrator 19.0.0, SVG Export Plug-In . SVG Version: 6.00 Build 0)  -->
<svg version="1.1" id="Layer_1" xmlns="http://www.w3.org/2000/svg" xmlns:xlink="http://www.w3.org/1999/xlink" x="0px" y="0px"
	 viewBox="0 0 528.7 116.3" style="enable-background:new 0 0 528.7 116.3;" xml:space="preserve">
<path style="fill:#00FFFF;" d="M374.4,116.3C374.3,116.3,374.3,116.3,374.4,116.3c-0.5,0-1-0.4-1-0.9L363.9,9.1l-11.9,74.6
	c-0.1,0.5-0.5,0.8-1,0.8c0,0,0,0,0,0c-0.5,0-0.9-0.4-1-0.9l-4.4-30.4l-4,22.8c-0.1,0.5-0.5,0.8-1,0.8c0,0,0,0,0,0
	c-0.5,0-0.9-0.4-1-0.8l-3.4-20.3l-3.8,6.5c-0.2,0.3-0.5,0.5-0.9,0.5H1c-0.6,0-1-0.4-1-1c0-0.6,0.4-1,1-1h329.9l4.9-8.4
	c0.2-0.4,0.6-0.6,1-0.5c0.4,0.1,0.7,0.4,0.8,0.8l2.9,17.2l4-23.2c0.1-0.5,0.5-0.8,1-0.8c0,0,0,0,0,0c0.5,0,0.9,0.4,1,0.9l4.4,30.1
	l12.2-76.1c0.1-0.5,0.5-0.8,1-0.8c0.5,0,0.9,0.4,1,0.9l9.4,105.2l8.5-65.5c0.1-0.5,0.5-0.9,1-0.9c0,0,0,0,0,0c0.5,0,0.9,0.4,1,0.9
	l4.4,36l6.4-25.9c0.1-0.5,0.5-0.8,1-0.8c0.5,0,0.9,0.4,0.9,0.8l3.1,18l2.9-9.6c0.1-0.4,0.5-0.7,0.9-0.7c0.4,0,0.8,0.2,1,0.5l4,7.2
	l3.4-4.9c0.2-0.3,0.5-0.4,0.8-0.4h113.9c0.6,0,1,0.4,1,1c0,0.6-0.4,1-1,1H414.3l-4,5.8c-0.2,0.3-0.5,0.4-0.9,0.4
	c-0.3,0-0.7-0.2-0.8-0.5L405,62l-3.5,11.4c-0.1,0.4-0.5,0.7-1,0.7c-0.5,0-0.8-0.4-0.9-0.8l-3-17.4l-6.5,26.5c-0.1,0.5-0.5,0.8-1,0.8
	c-0.5,0-0.9-0.4-0.9-0.9L384,48.7l-8.6,66.8C375.3,116,374.9,116.3,374.4,116.3z"/>
<g id="XMLID_14_">
</g>
<g id="XMLID_15_">
</g>
<g id="XMLID_16_">
</g>
<g id="XMLID_17_">
</g>
<g id="XMLID_18_">
</g>
<g id="XMLID_19_">
</g>
<g id="XMLID_20_">
</g>
<g id="XMLID_21_">
</g>
<g id="XMLID_22_">
</g>
<g id="XMLID_23_">
</g>
<g id="XMLID_24_">
</g>
<g id="XMLID_25_">
</g>
<g id="XMLID_26_">
</g>
<g id="XMLID_27_">
</g>
<g id="XMLID_28_">
</g>
</svg>
