<?xml version="1.0" encoding="iso-8859-1"?>
<!-- Generator: Adobe Illustrator 19.0.0, SVG Export Plug-In . SVG Version: 6.00 Build 0)  -->
<svg version="1.1" id="Capa_1" xmlns="http://www.w3.org/2000/svg" xmlns:xlink="http://www.w3.org/1999/xlink" x="0px" y="0px"
	 viewBox="0 0 480 480" style="enable-background:new 0 0 480 480;" xml:space="preserve">
<g>
	<g>
		<path d="M151.528,258.24c27.799-21.831,32.637-62.063,10.806-89.862c-21.831-27.799-62.063-32.637-89.862-10.806
			c-27.799,21.831-32.637,62.063-10.806,89.862c3.158,4.021,6.785,7.649,10.806,10.806C48.531,265.172,32.041,287.076,32,312v96
			c0,4.418,3.582,8,8,8h144c4.418,0,8-3.582,8-8v-96C191.959,287.076,175.469,265.172,151.528,258.24z M64,208
			c0-26.51,21.49-48,48-48c26.51,0,48,21.49,48,48c0,26.51-21.49,48-48,48C85.501,255.974,64.026,234.499,64,208z M119.384,326.504
			L112,337.6l-7.384-11.072L112,296.984L119.384,326.504z M176,400H48v-88c0.026-22.08,17.92-39.974,40-40h13.76l-13.52,54.056
			c-0.553,2.193-0.152,4.519,1.104,6.4l16,24c2.451,3.676,7.418,4.669,11.094,2.218c0.878-0.586,1.632-1.339,2.218-2.218l16-24
			c1.256-1.881,1.657-4.207,1.104-6.4L122.24,272H136c22.08,0.026,39.974,17.92,40,40V400z"/>
	</g>
</g>
<g>
	<g>
		<rect x="248" y="200" width="16" height="16"/>
	</g>
</g>
<g>
	<g>
		<rect x="280" y="200" width="16" height="16"/>
	</g>
</g>
<g>
	<g>
		<rect x="312" y="200" width="16" height="16"/>
	</g>
</g>
<g>
	<g>
		<rect x="344" y="200" width="16" height="16"/>
	</g>
</g>
<g>
	<g>
		<rect x="376" y="200" width="16" height="16"/>
	</g>
</g>
<g>
	<g>
		<rect x="408" y="200" width="16" height="16"/>
	</g>
</g>
<g>
	<g>
		<path d="M424,112H320V88c0-4.418-3.582-8-8-8h-24V40c0-4.418-3.582-8-8-8h-80c-4.418,0-8,3.582-8,8v40h-24c-4.418,0-8,3.582-8,8
			v24H8c-4.418,0-8,3.582-8,8v320c0,4.418,3.582,8,8,8h464c4.418,0,8-3.582,8-8V168C479.965,137.087,454.913,112.035,424,112z
			 M208,48h64v32h-64V48z M176,96h128v40c0,4.418-3.582,8-8,8H184c-4.418,0-8-3.582-8-8V96z M464,432H16V128h144v8
			c0,13.255,10.745,24,24,24h112c13.255,0,24-10.745,24-24v-8h104c22.08,0.026,39.974,17.92,40,40V432z"/>
	</g>
</g>
<g>
	<g>
		<rect x="224" y="288" width="224" height="16"/>
	</g>
</g>
<g>
	<g>
		<rect x="224" y="320" width="224" height="16"/>
	</g>
</g>
<g>
	<g>
		<rect x="224" y="352" width="224" height="16"/>
	</g>
</g>
<g>
	<g>
		<rect x="224" y="384" width="224" height="16"/>
	</g>
</g>
<g>
</g>
<g>
</g>
<g>
</g>
<g>
</g>
<g>
</g>
<g>
</g>
<g>
</g>
<g>
</g>
<g>
</g>
<g>
</g>
<g>
</g>
<g>
</g>
<g>
</g>
<g>
</g>
<g>
</g>
</svg>
