<?xml version="1.0"?>
<svg xmlns="http://www.w3.org/2000/svg" id="Capa_1" enable-background="new 0 0 512 512" height="512" viewBox="0 0 512 512" width="512" class=""><g><path d="m145 512h-80c-8.284 0-15-6.716-15-15v-17h110v17c0 8.284-6.716 15-15 15z" data-original="#000000" class="active-path" style="fill:#007BFF" data-old_color="#000000"/><path d="m447 512h-80c-8.284 0-15-6.716-15-15v-17h110v17c0 8.284-6.716 15-15 15z" data-original="#000000" class="active-path" style="fill:#007BFF" data-old_color="#000000"/><path d="m225 180c-24.813 0-45 20.187-45 45s20.187 45 45 45 45-20.187 45-45-20.187-45-45-45zm0 60c-8.271 0-15-6.729-15-15s6.729-15 15-15 15 6.729 15 15-6.729 15-15 15z" data-original="#000000" class="active-path" style="fill:#007BFF" data-old_color="#000000"/><path d="m0 210h60v30h-60z" data-original="#000000" class="active-path" style="fill:#007BFF" data-old_color="#000000"/><path d="m0 270h60v50h-60z" data-original="#000000" class="active-path" style="fill:#007BFF" data-old_color="#000000"/><path d="m422 90h-332v25 80 60 80 25h332zm-197 210c-41.355 0-75-33.645-75-75s33.645-75 75-75 75 33.645 75 75-33.645 75-75 75zm167-45c0 8.284-6.716 15-15 15s-15-6.716-15-15v-60c0-8.284 6.716-15 15-15s15 6.716 15 15z" data-original="#000000" class="active-path" style="fill:#007BFF" data-old_color="#000000"/><path d="m497 0h-482c-8.284 0-15 6.716-15 15v85h60v-25c0-8.284 6.716-15 15-15h362c8.284 0 15 6.716 15 15v300c0 8.284-6.716 15-15 15h-362c-8.284 0-15-6.716-15-15v-25h-60v85c0 8.284 6.716 15 15 15h482c8.284 0 15-6.716 15-15v-420c0-8.284-6.716-15-15-15z" data-original="#000000" class="active-path" style="fill:#007BFF" data-old_color="#000000"/><path d="m0 130h60v50h-60z" data-original="#000000" class="active-path" style="fill:#007BFF" data-old_color="#000000"/></g> </svg>
