<svg id="Capa_1" enable-background="new 0 0 512 512" height="512" viewBox="0 0 512 512" width="512" xmlns="http://www.w3.org/2000/svg"><g><path d="m477 150.5c-4.142 0-7.5 3.357-7.5 7.5v280.793c0 4.525-3.682 8.207-8.208 8.207h-410.584c-4.526 0-8.208-3.682-8.208-8.207v-41.793c0-4.143-3.358-7.5-7.5-7.5s-7.5 3.357-7.5 7.5v41.793c0 12.797 10.411 23.207 23.208 23.207h21.635v32.5c0 9.649 7.851 17.5 17.5 17.5h94c9.649 0 17.5-7.851 17.5-17.5v-32.5h106v32.5c0 9.649 7.851 17.5 17.5 17.5h94c9.649 0 17.5-7.851 17.5-17.5v-32.5h24.95c12.797 0 23.208-10.41 23.208-23.207v-280.793c-.001-4.143-3.359-7.5-7.501-7.5zm-290.657 344c0 1.379-1.122 2.5-2.5 2.5h-94c-1.378 0-2.5-1.121-2.5-2.5v-32.5h99zm235 0c0 1.379-1.122 2.5-2.5 2.5h-94c-1.378 0-2.5-1.121-2.5-2.5v-32.5h99z"/><path d="m461.292 0h-410.584c-12.797 0-23.208 10.41-23.208 23.207v336.793c0 4.143 3.358 7.5 7.5 7.5s7.5-3.357 7.5-7.5v-336.793c0-4.525 3.682-8.207 8.208-8.207h410.585c4.526 0 8.208 3.682 8.208 8.207v98.793c0 4.143 3.358 7.5 7.5 7.5s7.5-3.357 7.5-7.5v-98.793c-.001-12.797-10.412-23.207-23.209-23.207z"/><path d="m60.91 284.158v48.203c0 12.354 9.009 22.637 20.801 24.64v24.836c0 13.047 10.615 23.662 23.662 23.662h297.94c13.047 0 23.662-10.615 23.662-23.662v-301.675c0-13.047-10.615-23.662-23.662-23.662h-96.671c-4.142 0-7.5 3.357-7.5 7.5s3.358 7.5 7.5 7.5h96.671c4.776 0 8.662 3.886 8.662 8.662v301.676c0 4.776-3.886 8.662-8.662 8.662h-297.94c-4.776 0-8.662-3.886-8.662-8.662v-24.836c11.792-2.004 20.801-12.287 20.801-24.64v-48.203c0-12.354-9.009-22.637-20.801-24.64v-57.036c11.792-2.004 20.801-12.287 20.801-24.64v-48.203c0-12.354-9.009-22.637-20.801-24.64v-24.838c0-4.776 3.886-8.662 8.662-8.662h158.479c4.142 0 7.5-3.357 7.5-7.5s-3.358-7.5-7.5-7.5h-158.479c-13.047 0-23.662 10.615-23.662 23.662v24.836c-11.792 2.004-20.801 12.287-20.801 24.64v48.203c0 12.354 9.009 22.637 20.801 24.64v57.036c-11.792 2.005-20.801 12.287-20.801 24.641zm41.602 0v48.203c0 5.514-4.486 10-10 10h-6.602c-5.514 0-10-4.486-10-10v-48.203c0-5.514 4.486-10 10-10h6.602c5.514 0 10 4.487 10 10zm-26.602-106.316v-48.203c0-5.514 4.486-10 10-10h6.602c5.514 0 10 4.486 10 10v48.203c0 5.514-4.486 10-10 10h-6.602c-5.514 0-10-4.487-10-10z"/><path d="m337.884 312.542c3.143 2.697 7.878 2.338 10.576-.805 19.27-22.444 29.883-51.117 29.883-80.737 0-68.374-55.626-124-124-124s-124 55.626-124 124 55.626 124 124 124c23.389 0 46.171-6.547 65.883-18.933 3.507-2.204 4.564-6.834 2.36-10.341-2.204-3.506-6.833-4.562-10.341-2.36-17.318 10.882-37.34 16.634-57.902 16.634-60.103 0-109-48.897-109-109s48.897-109 109-109 109 48.897 109 109c0 26.037-9.327 51.24-26.264 70.966-2.698 3.142-2.338 7.878.805 10.576z"/><path d="m332.074 238.5c4.142 0 7.5-3.357 7.5-7.5s-3.358-7.5-7.5-7.5h-28.819c-1.23-8.054-4.414-15.47-9.044-21.761l20.4-20.399c2.929-2.929 2.929-7.678 0-10.606-2.928-2.93-7.677-2.929-10.606-.001l-20.4 20.399c-6.291-4.629-13.707-7.814-21.761-9.043v-28.82c0-4.143-3.358-7.5-7.5-7.5s-7.5 3.357-7.5 7.5v28.82c-8.054 1.23-15.47 4.414-21.761 9.044l-20.4-20.4c-2.929-2.928-7.678-2.929-10.606.001-2.929 2.929-2.929 7.678 0 10.606l20.4 20.399c-4.63 6.291-7.814 13.708-9.044 21.761h-28.819c-4.142 0-7.5 3.357-7.5 7.5s3.358 7.5 7.5 7.5h28.819c1.23 8.054 4.414 15.47 9.044 21.761l-20.4 20.399c-2.929 2.929-2.929 7.678 0 10.606 2.929 2.93 7.677 2.929 10.606.001l20.4-20.4c6.291 4.629 13.707 7.814 21.761 9.044v28.82c0 4.143 3.358 7.5 7.5 7.5s7.5-3.357 7.5-7.5v-28.82c8.054-1.23 15.47-4.414 21.761-9.043l20.4 20.399c2.929 2.928 7.678 2.929 10.606-.001 2.929-2.929 2.929-7.678 0-10.606l-20.4-20.399c4.63-6.291 7.814-13.707 9.044-21.761zm-77.731 26.979c-19.012 0-34.479-15.468-34.479-34.479s15.467-34.479 34.479-34.479 34.48 15.468 34.48 34.479-15.468 34.479-34.48 34.479z"/></g></svg>